<svg width="53" height="94" viewBox="0 0 53 94" fill="none" xmlns="http://www.w3.org/2000/svg">
<g filter="url(#filter0_d_69_14)">
<path d="M26.625 0.4375C31.2917 0.4375 35.25 1.35417 38.5 3.1875C41.7917 5.02083 44.3125 7.47917 46.0625 10.5625C47.8125 13.6458 48.6875 17.0625 48.6875 20.8125V47.375C44.3958 51.375 39.4583 55.5 33.875 59.75C28.2917 63.9583 23.125 67.7083 18.375 71V90H0V0.4375H26.625ZM31.75 40.25V30.625C31.75 26.9583 31.6667 24.1042 31.5 22.0625C31.3333 20.0208 30.8333 18.5417 30 17.625C29.2083 16.6667 27.8958 16.0625 26.0625 15.8125C24.5208 15.6458 22.4792 15.5625 19.9375 15.5625H18.375V50.875C22.875 48.0833 27.3333 44.5417 31.75 40.25Z" fill="white"/>
</g>
<defs>
<filter id="filter0_d_69_14" x="0" y="0.4375" width="52.6875" height="93.5625" filterUnits="userSpaceOnUse" color-interpolation-filters="sRGB">
<feFlood flood-opacity="0" result="BackgroundImageFix"/>
<feColorMatrix in="SourceAlpha" type="matrix" values="0 0 0 0 0 0 0 0 0 0 0 0 0 0 0 0 0 0 127 0" result="hardAlpha"/>
<feOffset dx="4" dy="4"/>
<feComposite in2="hardAlpha" operator="out"/>
<feColorMatrix type="matrix" values="0 0 0 0 0.180769 0 0 0 0 0.767885 0 0 0 0 1 0 0 0 1 0"/>
<feBlend mode="normal" in2="BackgroundImageFix" result="effect1_dropShadow_69_14"/>
<feBlend mode="normal" in="SourceGraphic" in2="effect1_dropShadow_69_14" result="shape"/>
</filter>
</defs>
</svg>
