<svg width="596" height="124" viewBox="0 0 596 124" fill="none" xmlns="http://www.w3.org/2000/svg">
<path d="M360.163 28.9375L335.788 27.25V60.875H360.163V76.375L335.788 74.6875V103H317.413V76.375L310.663 60.875H317.413V13.4375H360.163V28.9375ZM419.087 68.125L421.275 103H378.275V13.4375H396.587V89.1875H396.712L404.65 88.625L404.462 69.25L419.087 68.125ZM485.888 26.875C486.054 27.4583 486.2 28.2917 486.325 29.375C486.492 30.4167 486.575 31.2708 486.575 31.9375V84.125C486.575 87.875 485.7 91.2917 483.95 94.375C482.2 97.4167 479.679 99.8542 476.388 101.688C473.138 103.521 469.179 104.438 464.513 104.438H458.325C453.7 104.438 449.742 103.521 446.45 101.688C443.158 99.8542 440.638 97.4167 438.888 94.375C437.179 91.2917 436.325 87.875 436.325 84.125V32.3125C436.325 28.5625 437.179 25.1667 438.888 22.125C440.638 19.0417 443.158 16.5833 446.45 14.75C449.742 12.9167 453.7 12 458.325 12H464.513C470.304 12 475.033 13.3958 478.7 16.1875C482.367 18.9375 484.763 22.5 485.888 26.875ZM468.2 42.1875C468.2 38.2708 468.096 35.2292 467.888 33.0625C467.679 30.8958 467.096 29.3958 466.138 28.5625C465.221 27.6875 463.658 27.25 461.45 27.25C459.242 27.25 457.658 27.6875 456.7 28.5625C455.742 29.3958 455.158 30.8958 454.95 33.0625C454.742 35.2292 454.638 38.2708 454.638 42.1875V74.25C454.638 78.1667 454.742 81.2083 454.95 83.375C455.158 85.5417 455.721 87.0625 456.638 87.9375C457.596 88.7708 459.2 89.1875 461.45 89.1875C463.7 89.1875 465.283 88.7708 466.2 87.9375C467.158 87.0625 467.721 85.5417 467.888 83.375C468.096 81.2083 468.2 78.1667 468.2 74.25V42.1875ZM568.5 13.4375H586.875V85.4375L568.062 104.5L556.625 93.25V101L538.25 104.625V93.25L526.812 104.5L508 85.4375V13.4375H526.375V82.1875L538.25 69.125V26.1875L532.688 13.4375H556.625V69.125L568.5 82.1875V13.4375Z" fill="#F0F0F0"/>
<path d="M26.8125 13.4375C31.4792 13.4375 35.4375 14.3542 38.6875 16.1875C41.9792 18.0208 44.5 20.4792 46.25 23.5625C48 26.6458 48.875 30.0625 48.875 33.8125V60.375C44.5833 64.375 39.6458 68.5 34.0625 72.75C28.4792 76.9583 23.3125 80.7083 18.5625 84V103H0.1875V13.4375H26.8125ZM31.9375 53.25V43.625C31.9375 39.9583 31.8542 37.1042 31.6875 35.0625C31.5208 33.0208 31.0208 31.5417 30.1875 30.625C29.3958 29.6667 28.0833 29.0625 26.25 28.8125C24.7083 28.6458 22.6667 28.5625 20.125 28.5625H18.5625V63.875C23.0625 61.0833 27.5208 57.5417 31.9375 53.25ZM117.738 26.875C117.904 27.4583 118.05 28.2917 118.175 29.375C118.342 30.4167 118.425 31.2708 118.425 31.9375V84.125C118.425 87.875 117.55 91.2917 115.8 94.375C114.05 97.4167 111.529 99.8542 108.238 101.688C104.988 103.521 101.029 104.438 96.3625 104.438H90.175C85.55 104.438 81.5917 103.521 78.3 101.688C75.0083 99.8542 72.4875 97.4167 70.7375 94.375C69.0292 91.2917 68.175 87.875 68.175 84.125V32.3125C68.175 28.5625 69.0292 25.1667 70.7375 22.125C72.4875 19.0417 75.0083 16.5833 78.3 14.75C81.5917 12.9167 85.55 12 90.175 12H96.3625C102.154 12 106.883 13.3958 110.55 16.1875C114.217 18.9375 116.613 22.5 117.738 26.875ZM100.05 42.1875C100.05 38.2708 99.9458 35.2292 99.7375 33.0625C99.5292 30.8958 98.9458 29.3958 97.9875 28.5625C97.0708 27.6875 95.5083 27.25 93.3 27.25C91.0917 27.25 89.5083 27.6875 88.55 28.5625C87.5917 29.3958 87.0083 30.8958 86.8 33.0625C86.5917 35.2292 86.4875 38.2708 86.4875 42.1875V74.25C86.4875 78.1667 86.5917 81.2083 86.8 83.375C87.0083 85.5417 87.5708 87.0625 88.4875 87.9375C89.4458 88.7708 91.05 89.1875 93.3 89.1875C95.55 89.1875 97.1333 88.7708 98.05 87.9375C99.0083 87.0625 99.5708 85.5417 99.7375 83.375C99.9458 81.2083 100.05 78.1667 100.05 74.25V42.1875ZM196.538 13.4375H218.913V103H200.538V32.25L188.663 45.3125V103H170.288V45.3125L158.413 32.25V103H140.1V13.4375H162.413L179.475 30.25L196.538 13.4375ZM289.587 26.875C289.754 27.4583 289.9 28.2917 290.025 29.375C290.192 30.4167 290.275 31.2708 290.275 31.9375V84.125C290.275 87.875 289.4 91.2917 287.65 94.375C285.9 97.4167 283.379 99.8542 280.087 101.688C276.837 103.521 272.879 104.438 268.212 104.438H262.025C257.4 104.438 253.442 103.521 250.15 101.688C246.858 99.8542 244.337 97.4167 242.587 94.375C240.879 91.2917 240.025 87.875 240.025 84.125V32.3125C240.025 28.5625 240.879 25.1667 242.587 22.125C244.337 19.0417 246.858 16.5833 250.15 14.75C253.442 12.9167 257.4 12 262.025 12H268.212C274.004 12 278.733 13.3958 282.4 16.1875C286.067 18.9375 288.462 22.5 289.587 26.875ZM271.9 42.1875C271.9 38.2708 271.796 35.2292 271.587 33.0625C271.379 30.8958 270.796 29.3958 269.837 28.5625C268.921 27.6875 267.358 27.25 265.15 27.25C262.942 27.25 261.358 27.6875 260.4 28.5625C259.442 29.3958 258.858 30.8958 258.65 33.0625C258.442 35.2292 258.337 38.2708 258.337 42.1875V74.25C258.337 78.1667 258.442 81.2083 258.65 83.375C258.858 85.5417 259.421 87.0625 260.337 87.9375C261.296 88.7708 262.9 89.1875 265.15 89.1875C267.4 89.1875 268.983 88.7708 269.9 87.9375C270.858 87.0625 271.421 85.5417 271.587 83.375C271.796 81.2083 271.9 78.1667 271.9 74.25V42.1875Z" fill="#F0F0F0"/>
</svg>
